<?xml version="1.0" encoding="utf-8" standalone="no"?>
<!DOCTYPE svg PUBLIC "-//W3C//DTD SVG 1.1//EN"
  "http://www.w3.org/Graphics/SVG/1.1/DTD/svg11.dtd">
<svg height="701.28pt" version="1.1" viewBox="0 0 1343.52 701.28" width="1343.52pt" xmlns="http://www.w3.org/2000/svg" xmlns:xlink="http://www.w3.org/1999/xlink">
 <metadata>
  <rdf:RDF xmlns:cc="http://creativecommons.org/ns#" xmlns:dc="http://purl.org/dc/elements/1.1/" xmlns:rdf="http://www.w3.org/1999/02/22-rdf-syntax-ns#">
   <cc:Work>
    <dc:type rdf:resource="http://purl.org/dc/dcmitype/StillImage"/>
    <dc:date>2023-02-08T17:44:45.464869</dc:date>
    <dc:format>image/svg+xml</dc:format>
    <dc:creator>
     <cc:Agent>
      <dc:title>Matplotlib v3.4.1, https://matplotlib.org/</dc:title>
     </cc:Agent>
    </dc:creator>
   </cc:Work>
  </rdf:RDF>
 </metadata>
 <defs>
  <style type="text/css">*{stroke-linecap:butt;stroke-linejoin:round;}</style>
 </defs>
 <g id="figure_1">
  <g id="patch_1">
   <path d="M 0 701.28 
L 1343.52 701.28 
L 1343.52 0 
L 0 0 
z
" style="fill:#ffffff;"/>
  </g>
  <g id="axes_1">
   <g id="patch_2">
    <path d="M 167.94 624.1392 
L 1209.168 624.1392 
L 1209.168 84.1536 
L 167.94 84.1536 
z
" style="fill:#ffffff;"/>
   </g>
   <g id="PathCollection_1">
    <defs>
     <path d="M 0 3.535534 
C 0.937635 3.535534 1.836992 3.163008 2.5 2.5 
C 3.163008 1.836992 3.535534 0.937635 3.535534 0 
C 3.535534 -0.937635 3.163008 -1.836992 2.5 -2.5 
C 1.836992 -3.163008 0.937635 -3.535534 0 -3.535534 
C -0.937635 -3.535534 -1.836992 -3.163008 -2.5 -2.5 
C -3.163008 -1.836992 -3.535534 -0.937635 -3.535534 0 
C -3.535534 0.937635 -3.163008 1.836992 -2.5 2.5 
C -1.836992 3.163008 -0.937635 3.535534 0 3.535534 
z
" id="meb4bae4eb3" style="stroke:#1f77b4;"/>
    </defs>
    <g clip-path="url(#p3571e3271e)">
     <use style="fill:#1f77b4;stroke:#1f77b4;" x="689.095191" xlink:href="#meb4bae4eb3" y="353.728243"/>
    </g>
   </g>
   <g id="PathCollection_2">
    <defs>
     <path d="M -3.535534 3.535534 
L 3.535534 -3.535534 
M -3.535534 -3.535534 
L 3.535534 3.535534 
" id="m0f70c522b9" style="stroke:#ff7f0e;stroke-width:1.5;"/>
    </defs>
    <g clip-path="url(#p3571e3271e)">
     <use style="fill:#ff7f0e;stroke:#ff7f0e;stroke-width:1.5;" x="688.554" xlink:href="#m0f70c522b9" y="354.1464"/>
    </g>
   </g>
   <g id="PathCollection_3">
    <defs>
     <path d="M 0 1.581139 
C 0.419323 1.581139 0.821528 1.41454 1.118034 1.118034 
C 1.41454 0.821528 1.581139 0.419323 1.581139 0 
C 1.581139 -0.419323 1.41454 -0.821528 1.118034 -1.118034 
C 0.821528 -1.41454 0.419323 -1.581139 0 -1.581139 
C -0.419323 -1.581139 -0.821528 -1.41454 -1.118034 -1.118034 
C -1.41454 -0.821528 -1.581139 -0.419323 -1.581139 0 
C -1.581139 0.419323 -1.41454 0.821528 -1.118034 1.118034 
C -0.821528 1.41454 -0.419323 1.581139 0 1.581139 
z
" id="m2df2aeec0b" style="stroke:#000000;stroke-opacity:0.3;"/>
    </defs>
    <g clip-path="url(#p3571e3271e)">
     <use style="fill-opacity:0.3;stroke:#000000;stroke-opacity:0.3;" x="575.139802" xlink:href="#m2df2aeec0b" y="412.953131"/>
     <use style="fill-opacity:0.3;stroke:#000000;stroke-opacity:0.3;" x="803.050581" xlink:href="#m2df2aeec0b" y="300.540235"/>
     <use style="fill-opacity:0.3;stroke:#000000;stroke-opacity:0.3;" x="791.875619" xlink:href="#m2df2aeec0b" y="294.503354"/>
     <use style="fill-opacity:0.3;stroke:#000000;stroke-opacity:0.3;" x="563.96484" xlink:href="#m2df2aeec0b" y="406.91625"/>
     <use style="fill-opacity:0.3;stroke:#000000;stroke-opacity:0.3;" x="623.736275" xlink:href="#m2df2aeec0b" y="380.322246"/>
     <use style="fill-opacity:0.3;stroke:#000000;stroke-opacity:0.3;" x="407.000459" xlink:href="#m2df2aeec0b" y="498.772022"/>
     <use style="fill-opacity:0.3;stroke:#000000;stroke-opacity:0.3;" x="695.656829" xlink:href="#m2df2aeec0b" y="345.570521"/>
     <use style="fill-opacity:0.3;stroke:#000000;stroke-opacity:0.3;" x="744.253302" xlink:href="#m2df2aeec0b" y="312.939637"/>
     <use style="fill-opacity:0.3;stroke:#000000;stroke-opacity:0.3;" x="701.974927" xlink:href="#m2df2aeec0b" y="337.94301"/>
     <use style="fill-opacity:0.3;stroke:#000000;stroke-opacity:0.3;" x="773.89548" xlink:href="#m2df2aeec0b" y="303.191286"/>
     <use style="fill-opacity:0.3;stroke:#000000;stroke-opacity:0.3;" x="661.276076" xlink:href="#m2df2aeec0b" y="361.039506"/>
     <use style="fill-opacity:0.3;stroke:#000000;stroke-opacity:0.3;" x="654.957978" xlink:href="#m2df2aeec0b" y="368.667017"/>
     <use style="fill-opacity:0.3;stroke:#000000;stroke-opacity:0.3;" x="689.33873" xlink:href="#m2df2aeec0b" y="353.198033"/>
     <use style="fill-opacity:0.3;stroke:#000000;stroke-opacity:0.3;" x="703.370057" xlink:href="#m2df2aeec0b" y="349.277296"/>
     <use style="fill-opacity:0.3;stroke:#000000;stroke-opacity:0.3;" x="730.037581" xlink:href="#m2df2aeec0b" y="330.101537"/>
     <use style="fill-opacity:0.3;stroke:#000000;stroke-opacity:0.3;" x="673.727879" xlink:href="#m2df2aeec0b" y="359.025647"/>
     <use style="fill-opacity:0.3;stroke:#000000;stroke-opacity:0.3;" x="667.409781" xlink:href="#m2df2aeec0b" y="366.653158"/>
     <use style="fill-opacity:0.3;stroke:#000000;stroke-opacity:0.3;" x="683.020632" xlink:href="#m2df2aeec0b" y="360.825544"/>
     <use style="fill-opacity:0.3;stroke:#000000;stroke-opacity:0.3;" x="680.697444" xlink:href="#m2df2aeec0b" y="360.375569"/>
     <use style="fill-opacity:0.3;stroke:#000000;stroke-opacity:0.3;" x="702.626394" xlink:href="#m2df2aeec0b" y="346.920444"/>
     <use style="fill-opacity:0.3;stroke:#000000;stroke-opacity:0.3;" x="676.213934" xlink:href="#m2df2aeec0b" y="361.71998"/>
     <use style="fill-opacity:0.3;stroke:#000000;stroke-opacity:0.3;" x="693.82224" xlink:href="#m2df2aeec0b" y="351.853622"/>
     <use style="fill-opacity:0.3;stroke:#000000;stroke-opacity:0.3;" x="680.616011" xlink:href="#m2df2aeec0b" y="359.25339"/>
     <use style="fill-opacity:0.3;stroke:#000000;stroke-opacity:0.3;" x="689.257297" xlink:href="#m2df2aeec0b" y="352.075853"/>
     <use style="fill-opacity:0.3;stroke:#000000;stroke-opacity:0.3;" x="682.837407" xlink:href="#m2df2aeec0b" y="358.30064"/>
     <use style="fill-opacity:0.3;stroke:#000000;stroke-opacity:0.3;" x="691.560127" xlink:href="#m2df2aeec0b" y="352.245283"/>
     <use style="fill-opacity:0.3;stroke:#000000;stroke-opacity:0.3;" x="688.824098" xlink:href="#m2df2aeec0b" y="353.99731"/>
     <use style="fill-opacity:0.3;stroke:#000000;stroke-opacity:0.3;" x="695.325421" xlink:href="#m2df2aeec0b" y="348.894702"/>
     <use style="fill-opacity:0.3;stroke:#000000;stroke-opacity:0.3;" x="685.959411" xlink:href="#m2df2aeec0b" y="355.949156"/>
     <use style="fill-opacity:0.3;stroke:#000000;stroke-opacity:0.3;" x="685.444778" xlink:href="#m2df2aeec0b" y="356.748433"/>
     <use style="fill-opacity:0.3;stroke:#000000;stroke-opacity:0.3;" x="686.418266" xlink:href="#m2df2aeec0b" y="355.860833"/>
     <use style="fill-opacity:0.3;stroke:#000000;stroke-opacity:0.3;" x="688.365242" xlink:href="#m2df2aeec0b" y="354.085633"/>
     <use style="fill-opacity:0.3;stroke:#000000;stroke-opacity:0.3;" x="691.22993" xlink:href="#m2df2aeec0b" y="352.133786"/>
     <use style="fill-opacity:0.3;stroke:#000000;stroke-opacity:0.3;" x="687.27704" xlink:href="#m2df2aeec0b" y="354.995313"/>
     <use style="fill-opacity:0.3;stroke:#000000;stroke-opacity:0.3;" x="687.735896" xlink:href="#m2df2aeec0b" y="354.90699"/>
     <use style="fill-opacity:0.3;stroke:#000000;stroke-opacity:0.3;" x="688.207906" xlink:href="#m2df2aeec0b" y="354.290972"/>
     <use style="fill-opacity:0.3;stroke:#000000;stroke-opacity:0.3;" x="689.754963" xlink:href="#m2df2aeec0b" y="353.292968"/>
     <use style="fill-opacity:0.3;stroke:#000000;stroke-opacity:0.3;" x="687.896521" xlink:href="#m2df2aeec0b" y="354.569727"/>
     <use style="fill-opacity:0.3;stroke:#000000;stroke-opacity:0.3;" x="689.135483" xlink:href="#m2df2aeec0b" y="353.718555"/>
     <use style="fill-opacity:0.3;stroke:#000000;stroke-opacity:0.3;" x="688.206261" xlink:href="#m2df2aeec0b" y="354.356934"/>
     <use style="fill-opacity:0.3;stroke:#000000;stroke-opacity:0.3;" x="688.822454" xlink:href="#m2df2aeec0b" y="354.063271"/>
     <use style="fill-opacity:0.3;stroke:#000000;stroke-opacity:0.3;" x="688.361543" xlink:href="#m2df2aeec0b" y="354.234047"/>
     <use style="fill-opacity:0.3;stroke:#000000;stroke-opacity:0.3;" x="687.743706" xlink:href="#m2df2aeec0b" y="354.593671"/>
     <use style="fill-opacity:0.3;stroke:#000000;stroke-opacity:0.3;" x="688.554" xlink:href="#m2df2aeec0b" y="354.1464"/>
    </g>
   </g>
   <g id="patch_3">
    <path clip-path="url(#p3571e3271e)" d="M 575.139802 412.953131 
L 803.050581 300.540235 
L 791.875619 294.503354 
z
" style="fill:none;stroke:#000000;stroke-linejoin:miter;"/>
   </g>
   <g id="matplotlib.axis_1">
    <g id="xtick_1">
     <g id="line2d_1">
      <defs>
       <path d="M 0 0 
L 0 3.5 
" id="m861981824b" style="stroke:#000000;stroke-width:0.8;"/>
      </defs>
      <g>
       <use style="stroke:#000000;stroke-width:0.8;" x="238.398759" xlink:href="#m861981824b" y="624.1392"/>
      </g>
     </g>
     <g id="text_1">
      <!-- 0.4425 -->
      <g transform="translate(220.903447 638.737638)scale(0.1 -0.1)">
       <defs>
        <path d="M 2034 4250 
Q 1547 4250 1301 3770 
Q 1056 3291 1056 2328 
Q 1056 1369 1301 889 
Q 1547 409 2034 409 
Q 2525 409 2770 889 
Q 3016 1369 3016 2328 
Q 3016 3291 2770 3770 
Q 2525 4250 2034 4250 
z
M 2034 4750 
Q 2819 4750 3233 4129 
Q 3647 3509 3647 2328 
Q 3647 1150 3233 529 
Q 2819 -91 2034 -91 
Q 1250 -91 836 529 
Q 422 1150 422 2328 
Q 422 3509 836 4129 
Q 1250 4750 2034 4750 
z
" id="DejaVuSans-30" transform="scale(0.015625)"/>
        <path d="M 684 794 
L 1344 794 
L 1344 0 
L 684 0 
L 684 794 
z
" id="DejaVuSans-2e" transform="scale(0.015625)"/>
        <path d="M 2419 4116 
L 825 1625 
L 2419 1625 
L 2419 4116 
z
M 2253 4666 
L 3047 4666 
L 3047 1625 
L 3713 1625 
L 3713 1100 
L 3047 1100 
L 3047 0 
L 2419 0 
L 2419 1100 
L 313 1100 
L 313 1709 
L 2253 4666 
z
" id="DejaVuSans-34" transform="scale(0.015625)"/>
        <path d="M 1228 531 
L 3431 531 
L 3431 0 
L 469 0 
L 469 531 
Q 828 903 1448 1529 
Q 2069 2156 2228 2338 
Q 2531 2678 2651 2914 
Q 2772 3150 2772 3378 
Q 2772 3750 2511 3984 
Q 2250 4219 1831 4219 
Q 1534 4219 1204 4116 
Q 875 4013 500 3803 
L 500 4441 
Q 881 4594 1212 4672 
Q 1544 4750 1819 4750 
Q 2544 4750 2975 4387 
Q 3406 4025 3406 3419 
Q 3406 3131 3298 2873 
Q 3191 2616 2906 2266 
Q 2828 2175 2409 1742 
Q 1991 1309 1228 531 
z
" id="DejaVuSans-32" transform="scale(0.015625)"/>
        <path d="M 691 4666 
L 3169 4666 
L 3169 4134 
L 1269 4134 
L 1269 2991 
Q 1406 3038 1543 3061 
Q 1681 3084 1819 3084 
Q 2600 3084 3056 2656 
Q 3513 2228 3513 1497 
Q 3513 744 3044 326 
Q 2575 -91 1722 -91 
Q 1428 -91 1123 -41 
Q 819 9 494 109 
L 494 744 
Q 775 591 1075 516 
Q 1375 441 1709 441 
Q 2250 441 2565 725 
Q 2881 1009 2881 1497 
Q 2881 1984 2565 2268 
Q 2250 2553 1709 2553 
Q 1456 2553 1204 2497 
Q 953 2441 691 2322 
L 691 4666 
z
" id="DejaVuSans-35" transform="scale(0.015625)"/>
       </defs>
       <use xlink:href="#DejaVuSans-30"/>
       <use x="63.623047" xlink:href="#DejaVuSans-2e"/>
       <use x="95.410156" xlink:href="#DejaVuSans-34"/>
       <use x="159.033203" xlink:href="#DejaVuSans-34"/>
       <use x="222.65625" xlink:href="#DejaVuSans-32"/>
       <use x="286.279297" xlink:href="#DejaVuSans-35"/>
      </g>
     </g>
    </g>
    <g id="xtick_2">
     <g id="line2d_2">
      <g>
       <use style="stroke:#000000;stroke-width:0.8;" x="368.552259" xlink:href="#m861981824b" y="624.1392"/>
      </g>
     </g>
     <g id="text_2">
      <!-- 0.4450 -->
      <g transform="translate(351.056947 638.737638)scale(0.1 -0.1)">
       <use xlink:href="#DejaVuSans-30"/>
       <use x="63.623047" xlink:href="#DejaVuSans-2e"/>
       <use x="95.410156" xlink:href="#DejaVuSans-34"/>
       <use x="159.033203" xlink:href="#DejaVuSans-34"/>
       <use x="222.65625" xlink:href="#DejaVuSans-35"/>
       <use x="286.279297" xlink:href="#DejaVuSans-30"/>
      </g>
     </g>
    </g>
    <g id="xtick_3">
     <g id="line2d_3">
      <g>
       <use style="stroke:#000000;stroke-width:0.8;" x="498.705759" xlink:href="#m861981824b" y="624.1392"/>
      </g>
     </g>
     <g id="text_3">
      <!-- 0.4475 -->
      <g transform="translate(481.210447 638.737638)scale(0.1 -0.1)">
       <defs>
        <path d="M 525 4666 
L 3525 4666 
L 3525 4397 
L 1831 0 
L 1172 0 
L 2766 4134 
L 525 4134 
L 525 4666 
z
" id="DejaVuSans-37" transform="scale(0.015625)"/>
       </defs>
       <use xlink:href="#DejaVuSans-30"/>
       <use x="63.623047" xlink:href="#DejaVuSans-2e"/>
       <use x="95.410156" xlink:href="#DejaVuSans-34"/>
       <use x="159.033203" xlink:href="#DejaVuSans-34"/>
       <use x="222.65625" xlink:href="#DejaVuSans-37"/>
       <use x="286.279297" xlink:href="#DejaVuSans-35"/>
      </g>
     </g>
    </g>
    <g id="xtick_4">
     <g id="line2d_4">
      <g>
       <use style="stroke:#000000;stroke-width:0.8;" x="628.859259" xlink:href="#m861981824b" y="624.1392"/>
      </g>
     </g>
     <g id="text_4">
      <!-- 0.4500 -->
      <g transform="translate(611.363947 638.737638)scale(0.1 -0.1)">
       <use xlink:href="#DejaVuSans-30"/>
       <use x="63.623047" xlink:href="#DejaVuSans-2e"/>
       <use x="95.410156" xlink:href="#DejaVuSans-34"/>
       <use x="159.033203" xlink:href="#DejaVuSans-35"/>
       <use x="222.65625" xlink:href="#DejaVuSans-30"/>
       <use x="286.279297" xlink:href="#DejaVuSans-30"/>
      </g>
     </g>
    </g>
    <g id="xtick_5">
     <g id="line2d_5">
      <g>
       <use style="stroke:#000000;stroke-width:0.8;" x="759.012759" xlink:href="#m861981824b" y="624.1392"/>
      </g>
     </g>
     <g id="text_5">
      <!-- 0.4525 -->
      <g transform="translate(741.517447 638.737638)scale(0.1 -0.1)">
       <use xlink:href="#DejaVuSans-30"/>
       <use x="63.623047" xlink:href="#DejaVuSans-2e"/>
       <use x="95.410156" xlink:href="#DejaVuSans-34"/>
       <use x="159.033203" xlink:href="#DejaVuSans-35"/>
       <use x="222.65625" xlink:href="#DejaVuSans-32"/>
       <use x="286.279297" xlink:href="#DejaVuSans-35"/>
      </g>
     </g>
    </g>
    <g id="xtick_6">
     <g id="line2d_6">
      <g>
       <use style="stroke:#000000;stroke-width:0.8;" x="889.166259" xlink:href="#m861981824b" y="624.1392"/>
      </g>
     </g>
     <g id="text_6">
      <!-- 0.4550 -->
      <g transform="translate(871.670947 638.737638)scale(0.1 -0.1)">
       <use xlink:href="#DejaVuSans-30"/>
       <use x="63.623047" xlink:href="#DejaVuSans-2e"/>
       <use x="95.410156" xlink:href="#DejaVuSans-34"/>
       <use x="159.033203" xlink:href="#DejaVuSans-35"/>
       <use x="222.65625" xlink:href="#DejaVuSans-35"/>
       <use x="286.279297" xlink:href="#DejaVuSans-30"/>
      </g>
     </g>
    </g>
    <g id="xtick_7">
     <g id="line2d_7">
      <g>
       <use style="stroke:#000000;stroke-width:0.8;" x="1019.319759" xlink:href="#m861981824b" y="624.1392"/>
      </g>
     </g>
     <g id="text_7">
      <!-- 0.4575 -->
      <g transform="translate(1001.824447 638.737638)scale(0.1 -0.1)">
       <use xlink:href="#DejaVuSans-30"/>
       <use x="63.623047" xlink:href="#DejaVuSans-2e"/>
       <use x="95.410156" xlink:href="#DejaVuSans-34"/>
       <use x="159.033203" xlink:href="#DejaVuSans-35"/>
       <use x="222.65625" xlink:href="#DejaVuSans-37"/>
       <use x="286.279297" xlink:href="#DejaVuSans-35"/>
      </g>
     </g>
    </g>
    <g id="xtick_8">
     <g id="line2d_8">
      <g>
       <use style="stroke:#000000;stroke-width:0.8;" x="1149.473259" xlink:href="#m861981824b" y="624.1392"/>
      </g>
     </g>
     <g id="text_8">
      <!-- 0.4600 -->
      <g transform="translate(1131.977947 638.737638)scale(0.1 -0.1)">
       <defs>
        <path d="M 2113 2584 
Q 1688 2584 1439 2293 
Q 1191 2003 1191 1497 
Q 1191 994 1439 701 
Q 1688 409 2113 409 
Q 2538 409 2786 701 
Q 3034 994 3034 1497 
Q 3034 2003 2786 2293 
Q 2538 2584 2113 2584 
z
M 3366 4563 
L 3366 3988 
Q 3128 4100 2886 4159 
Q 2644 4219 2406 4219 
Q 1781 4219 1451 3797 
Q 1122 3375 1075 2522 
Q 1259 2794 1537 2939 
Q 1816 3084 2150 3084 
Q 2853 3084 3261 2657 
Q 3669 2231 3669 1497 
Q 3669 778 3244 343 
Q 2819 -91 2113 -91 
Q 1303 -91 875 529 
Q 447 1150 447 2328 
Q 447 3434 972 4092 
Q 1497 4750 2381 4750 
Q 2619 4750 2861 4703 
Q 3103 4656 3366 4563 
z
" id="DejaVuSans-36" transform="scale(0.015625)"/>
       </defs>
       <use xlink:href="#DejaVuSans-30"/>
       <use x="63.623047" xlink:href="#DejaVuSans-2e"/>
       <use x="95.410156" xlink:href="#DejaVuSans-34"/>
       <use x="159.033203" xlink:href="#DejaVuSans-36"/>
       <use x="222.65625" xlink:href="#DejaVuSans-30"/>
       <use x="286.279297" xlink:href="#DejaVuSans-30"/>
      </g>
     </g>
    </g>
   </g>
   <g id="matplotlib.axis_2">
    <g id="ytick_1">
     <g id="line2d_9">
      <defs>
       <path d="M 0 0 
L -3.5 0 
" id="m34d644e43a" style="stroke:#000000;stroke-width:0.8;"/>
      </defs>
      <g>
       <use style="stroke:#000000;stroke-width:0.8;" x="167.94" xlink:href="#m34d644e43a" y="562.930899"/>
      </g>
     </g>
     <g id="text_9">
      <!-- 0.4700 -->
      <g transform="translate(125.949375 566.730118)scale(0.1 -0.1)">
       <use xlink:href="#DejaVuSans-30"/>
       <use x="63.623047" xlink:href="#DejaVuSans-2e"/>
       <use x="95.410156" xlink:href="#DejaVuSans-34"/>
       <use x="159.033203" xlink:href="#DejaVuSans-37"/>
       <use x="222.65625" xlink:href="#DejaVuSans-30"/>
       <use x="286.279297" xlink:href="#DejaVuSans-30"/>
      </g>
     </g>
    </g>
    <g id="ytick_2">
     <g id="line2d_10">
      <g>
       <use style="stroke:#000000;stroke-width:0.8;" x="167.94" xlink:href="#m34d644e43a" y="495.432699"/>
      </g>
     </g>
     <g id="text_10">
      <!-- 0.4725 -->
      <g transform="translate(125.949375 499.231918)scale(0.1 -0.1)">
       <use xlink:href="#DejaVuSans-30"/>
       <use x="63.623047" xlink:href="#DejaVuSans-2e"/>
       <use x="95.410156" xlink:href="#DejaVuSans-34"/>
       <use x="159.033203" xlink:href="#DejaVuSans-37"/>
       <use x="222.65625" xlink:href="#DejaVuSans-32"/>
       <use x="286.279297" xlink:href="#DejaVuSans-35"/>
      </g>
     </g>
    </g>
    <g id="ytick_3">
     <g id="line2d_11">
      <g>
       <use style="stroke:#000000;stroke-width:0.8;" x="167.94" xlink:href="#m34d644e43a" y="427.934499"/>
      </g>
     </g>
     <g id="text_11">
      <!-- 0.4750 -->
      <g transform="translate(125.949375 431.733718)scale(0.1 -0.1)">
       <use xlink:href="#DejaVuSans-30"/>
       <use x="63.623047" xlink:href="#DejaVuSans-2e"/>
       <use x="95.410156" xlink:href="#DejaVuSans-34"/>
       <use x="159.033203" xlink:href="#DejaVuSans-37"/>
       <use x="222.65625" xlink:href="#DejaVuSans-35"/>
       <use x="286.279297" xlink:href="#DejaVuSans-30"/>
      </g>
     </g>
    </g>
    <g id="ytick_4">
     <g id="line2d_12">
      <g>
       <use style="stroke:#000000;stroke-width:0.8;" x="167.94" xlink:href="#m34d644e43a" y="360.436299"/>
      </g>
     </g>
     <g id="text_12">
      <!-- 0.4775 -->
      <g transform="translate(125.949375 364.235518)scale(0.1 -0.1)">
       <use xlink:href="#DejaVuSans-30"/>
       <use x="63.623047" xlink:href="#DejaVuSans-2e"/>
       <use x="95.410156" xlink:href="#DejaVuSans-34"/>
       <use x="159.033203" xlink:href="#DejaVuSans-37"/>
       <use x="222.65625" xlink:href="#DejaVuSans-37"/>
       <use x="286.279297" xlink:href="#DejaVuSans-35"/>
      </g>
     </g>
    </g>
    <g id="ytick_5">
     <g id="line2d_13">
      <g>
       <use style="stroke:#000000;stroke-width:0.8;" x="167.94" xlink:href="#m34d644e43a" y="292.938099"/>
      </g>
     </g>
     <g id="text_13">
      <!-- 0.4800 -->
      <g transform="translate(125.949375 296.737318)scale(0.1 -0.1)">
       <defs>
        <path d="M 2034 2216 
Q 1584 2216 1326 1975 
Q 1069 1734 1069 1313 
Q 1069 891 1326 650 
Q 1584 409 2034 409 
Q 2484 409 2743 651 
Q 3003 894 3003 1313 
Q 3003 1734 2745 1975 
Q 2488 2216 2034 2216 
z
M 1403 2484 
Q 997 2584 770 2862 
Q 544 3141 544 3541 
Q 544 4100 942 4425 
Q 1341 4750 2034 4750 
Q 2731 4750 3128 4425 
Q 3525 4100 3525 3541 
Q 3525 3141 3298 2862 
Q 3072 2584 2669 2484 
Q 3125 2378 3379 2068 
Q 3634 1759 3634 1313 
Q 3634 634 3220 271 
Q 2806 -91 2034 -91 
Q 1263 -91 848 271 
Q 434 634 434 1313 
Q 434 1759 690 2068 
Q 947 2378 1403 2484 
z
M 1172 3481 
Q 1172 3119 1398 2916 
Q 1625 2713 2034 2713 
Q 2441 2713 2670 2916 
Q 2900 3119 2900 3481 
Q 2900 3844 2670 4047 
Q 2441 4250 2034 4250 
Q 1625 4250 1398 4047 
Q 1172 3844 1172 3481 
z
" id="DejaVuSans-38" transform="scale(0.015625)"/>
       </defs>
       <use xlink:href="#DejaVuSans-30"/>
       <use x="63.623047" xlink:href="#DejaVuSans-2e"/>
       <use x="95.410156" xlink:href="#DejaVuSans-34"/>
       <use x="159.033203" xlink:href="#DejaVuSans-38"/>
       <use x="222.65625" xlink:href="#DejaVuSans-30"/>
       <use x="286.279297" xlink:href="#DejaVuSans-30"/>
      </g>
     </g>
    </g>
    <g id="ytick_6">
     <g id="line2d_14">
      <g>
       <use style="stroke:#000000;stroke-width:0.8;" x="167.94" xlink:href="#m34d644e43a" y="225.439899"/>
      </g>
     </g>
     <g id="text_14">
      <!-- 0.4825 -->
      <g transform="translate(125.949375 229.239118)scale(0.1 -0.1)">
       <use xlink:href="#DejaVuSans-30"/>
       <use x="63.623047" xlink:href="#DejaVuSans-2e"/>
       <use x="95.410156" xlink:href="#DejaVuSans-34"/>
       <use x="159.033203" xlink:href="#DejaVuSans-38"/>
       <use x="222.65625" xlink:href="#DejaVuSans-32"/>
       <use x="286.279297" xlink:href="#DejaVuSans-35"/>
      </g>
     </g>
    </g>
    <g id="ytick_7">
     <g id="line2d_15">
      <g>
       <use style="stroke:#000000;stroke-width:0.8;" x="167.94" xlink:href="#m34d644e43a" y="157.941699"/>
      </g>
     </g>
     <g id="text_15">
      <!-- 0.4850 -->
      <g transform="translate(125.949375 161.740918)scale(0.1 -0.1)">
       <use xlink:href="#DejaVuSans-30"/>
       <use x="63.623047" xlink:href="#DejaVuSans-2e"/>
       <use x="95.410156" xlink:href="#DejaVuSans-34"/>
       <use x="159.033203" xlink:href="#DejaVuSans-38"/>
       <use x="222.65625" xlink:href="#DejaVuSans-35"/>
       <use x="286.279297" xlink:href="#DejaVuSans-30"/>
      </g>
     </g>
    </g>
    <g id="ytick_8">
     <g id="line2d_16">
      <g>
       <use style="stroke:#000000;stroke-width:0.8;" x="167.94" xlink:href="#m34d644e43a" y="90.443499"/>
      </g>
     </g>
     <g id="text_16">
      <!-- 0.4875 -->
      <g transform="translate(125.949375 94.242718)scale(0.1 -0.1)">
       <use xlink:href="#DejaVuSans-30"/>
       <use x="63.623047" xlink:href="#DejaVuSans-2e"/>
       <use x="95.410156" xlink:href="#DejaVuSans-34"/>
       <use x="159.033203" xlink:href="#DejaVuSans-38"/>
       <use x="222.65625" xlink:href="#DejaVuSans-37"/>
       <use x="286.279297" xlink:href="#DejaVuSans-35"/>
      </g>
     </g>
    </g>
   </g>
   <g id="LineCollection_1"/>
   <g id="LineCollection_2">
    <path clip-path="url(#p3571e3271e)" d="M 465.433714 497.719383 
L 391.182957 469.8576 
L 465.433714 427.00158 
L 554.067584 469.8576 
L 465.433714 497.719383 
" style="fill:none;stroke:#472d7b;stroke-width:1.5;"/>
   </g>
   <g id="LineCollection_3">
    <path clip-path="url(#p3571e3271e)" d="M 465.433714 529.473962 
L 306.55802 469.8576 
L 465.433714 378.157795 
L 655.085216 469.8576 
L 465.433714 529.473962 
" style="fill:none;stroke:#3b528b;stroke-width:1.5;"/>
    <path clip-path="url(#p3571e3271e)" d="M 911.674286 251.597765 
L 888.993154 238.4352 
L 911.674286 230.92715 
L 933.491944 238.4352 
L 911.674286 251.597765 
" style="fill:none;stroke:#3b528b;stroke-width:1.5;"/>
   </g>
   <g id="LineCollection_4">
    <path clip-path="url(#p3571e3271e)" d="M 465.433714 561.228542 
L 221.933084 469.8576 
L 465.433714 329.31401 
L 740.926579 238.4352 
L 911.674286 181.913228 
L 1075.921609 238.4352 
L 911.674286 337.525399 
L 756.102847 469.8576 
L 465.433714 561.228542 
" style="fill:none;stroke:#2c718e;stroke-width:1.5;"/>
   </g>
   <g id="LineCollection_5">
    <path clip-path="url(#p3571e3271e)" d="M 167.94 438.92116 
L 465.433714 280.470226 
L 592.860004 238.4352 
L 911.674286 132.899305 
L 1103.503571 84.1536 
" style="fill:none;stroke:#21918c;stroke-width:1.5;"/>
    <path clip-path="url(#p3571e3271e)" d="M 1209.168 246.676168 
L 911.674286 423.453032 
L 857.120479 469.8576 
L 465.433714 592.983122 
L 268.236929 624.1392 
" style="fill:none;stroke:#21918c;stroke-width:1.5;"/>
   </g>
   <g id="LineCollection_6">
    <path clip-path="url(#p3571e3271e)" d="M 167.94 353.454758 
L 437.511121 238.4352 
L 465.433714 222.980006 
L 909.732567 84.1536 
" style="fill:none;stroke:#27ad81;stroke-width:1.5;"/>
    <path clip-path="url(#p3571e3271e)" d="M 1209.168 374.490971 
L 1025.127354 469.8576 
L 911.674286 507.678179 
L 471.293975 624.1392 
" style="fill:none;stroke:#27ad81;stroke-width:1.5;"/>
   </g>
   <g id="LineCollection_7">
    <path clip-path="url(#p3571e3271e)" d="M 1209.168 498.345472 
L 911.674286 589.904413 
L 782.220448 624.1392 
" style="fill:none;stroke:#5ec962;stroke-width:1.5;"/>
    <path clip-path="url(#p3571e3271e)" d="M 167.94 267.988356 
L 237.203675 238.4352 
L 465.433714 112.109561 
L 554.903733 84.1536 
" style="fill:none;stroke:#5ec962;stroke-width:1.5;"/>
   </g>
   <g id="LineCollection_8">
    <path clip-path="url(#p3571e3271e)" d="M 1209.168 610.560468 
L 1158.081291 624.1392 
" style="fill:none;stroke:#addc30;stroke-width:1.5;"/>
    <path clip-path="url(#p3571e3271e)" d="M 167.94 120.842764 
L 231.727243 84.1536 
" style="fill:none;stroke:#addc30;stroke-width:1.5;"/>
   </g>
   <g id="LineCollection_9"/>
   <g id="patch_4">
    <path d="M 167.94 624.1392 
L 167.94 84.1536 
" style="fill:none;stroke:#000000;stroke-linecap:square;stroke-linejoin:miter;stroke-width:0.8;"/>
   </g>
   <g id="patch_5">
    <path d="M 1209.168 624.1392 
L 1209.168 84.1536 
" style="fill:none;stroke:#000000;stroke-linecap:square;stroke-linejoin:miter;stroke-width:0.8;"/>
   </g>
   <g id="patch_6">
    <path d="M 167.94 624.1392 
L 1209.168 624.1392 
" style="fill:none;stroke:#000000;stroke-linecap:square;stroke-linejoin:miter;stroke-width:0.8;"/>
   </g>
   <g id="patch_7">
    <path d="M 167.94 84.1536 
L 1209.168 84.1536 
" style="fill:none;stroke:#000000;stroke-linecap:square;stroke-linejoin:miter;stroke-width:0.8;"/>
   </g>
  </g>
 </g>
 <defs>
  <clipPath id="p3571e3271e">
   <rect height="539.9856" width="1041.228" x="167.94" y="84.1536"/>
  </clipPath>
 </defs>
</svg>
